<svg width="320" height="140" viewBox="0 0 320 140" fill="none" xmlns="http://www.w3.org/2000/svg">
  <defs>
    <linearGradient id="aeGradient" x1="0%" y1="0%" x2="100%" y2="100%">
      <stop offset="0%" stop-color="#FFA000"></stop>
      <stop offset="100%" stop-color="#FF4500"></stop>
    </linearGradient>
    <filter id="shadow" x="-20%" y="-20%" width="140%" height="140%">
      <feDropShadow dx="0" dy="4" stdDeviation="4" flood-color="#000000" flood-opacity="0.18"></feDropShadow>
    </filter>
  </defs>

  <!-- AE Symbol -->
  <g filter="url(#shadow)">
    <!-- a -->
    <path d="
      M70 80
      C70 50, 95 35, 125 35
      C150 35, 170 48, 170 70
      L170 105
      C170 112, 165 117, 158 117
      L145 117
      C138 117, 133 112, 133 105
      L133 75
      C133 63, 125 56, 113 56
      C100 56, 90 64, 90 78
      C90 92, 100 100, 113 100
      L150 100
      L150 120
      L110 120
      C85 120, 70 105, 70 80
      Z" fill="url(#aeGradient)"></path>

    <!-- e -->
    <path d="
      M180 78
      C180 50, 202 35, 232 35
      C262 35, 285 52, 285 78
      C285 85, 280 90, 273 90
      L215 90
      C219 99, 228 104, 240 104
      L282 104
      L282 120
      L235 120
      C205 120, 180 105, 180 78
      Z

      M215 73
      L252 73
      C248 62, 240 56, 232 56
      C223 56, 217 62, 215 73
      Z" fill="url(#aeGradient)"></path>
  </g>

  <!-- Brand Name -->
  <text x="160" y="135" text-anchor="middle" font-family="Poppins, Arial, sans-serif" font-size="26" font-weight="600" fill="#1F1F1F">
    Abbie Essentials
  </text>
</svg>